<svg xmlns="http://www.w3.org/2000/svg" width="17" height="13" viewBox="0 0 17 13" fill="none">
<path d="M14.6016 0.5C15.4141 0.5 16.1016 1.1875 16.1016 2V11C16.1016 11.8438 15.4141 12.5 14.6016 12.5H1.60156C0.757812 12.5 0.101562 11.8438 0.101562 11V2C0.101562 1.1875 0.757812 0.5 1.60156 0.5H14.6016ZM14.6016 2H1.60156V3.28125C2.28906 3.875 3.41406 4.75 5.78906 6.625C6.32031 7.03125 7.35156 8.03125 8.10156 8C8.82031 8.03125 9.85156 7.03125 10.3828 6.625C12.7578 4.75 13.8828 3.875 14.6016 3.28125V2ZM1.60156 11H14.6016V5.21875C13.8828 5.78125 12.8516 6.59375 11.3203 7.8125C10.6016 8.34375 9.41406 9.53125 8.10156 9.5C6.75781 9.53125 5.53906 8.34375 4.85156 7.8125C3.32031 6.59375 2.28906 5.78125 1.60156 5.21875V11Z" fill="#005175"/>
</svg>