<svg xmlns="http://www.w3.org/2000/svg" width="13" height="17" viewBox="0 0 13 17" fill="none">
<path d="M5.47656 15.6875C0.914062 9.125 0.101562 8.4375 0.101562 6C0.101562 2.6875 2.75781 0 6.10156 0C9.41406 0 12.1016 2.6875 12.1016 6C12.1016 8.4375 11.2578 9.125 6.69531 15.6875C6.41406 16.125 5.75781 16.125 5.47656 15.6875ZM6.10156 8.5C7.47656 8.5 8.60156 7.40625 8.60156 6C8.60156 4.625 7.47656 3.5 6.10156 3.5C4.69531 3.5 3.60156 4.625 3.60156 6C3.60156 7.40625 4.69531 8.5 6.10156 8.5Z" fill="#005175"/>
</svg>