<svg xmlns="http://www.w3.org/2000/svg" width="17" height="17" viewBox="0 0 17 17" fill="none">
<path d="M15.4453 1.28125C15.7891 1.375 16.0391 1.65625 16.0391 2C16.0391 10.0312 9.53906 16.5 1.53906 16.5C1.16406 16.5 0.882812 16.2812 0.789062 15.9375L0.0390625 12.6875C-0.0234375 12.3438 0.132812 11.9688 0.476562 11.8125L3.97656 10.3125C4.28906 10.1875 4.63281 10.2812 4.85156 10.5312L6.41406 12.4375C8.85156 11.2812 10.8203 9.28125 11.9453 6.90625L10.0391 5.34375C9.78906 5.125 9.69531 4.78125 9.82031 4.46875L11.3203 0.96875C11.4766 0.625 11.8516 0.4375 12.1953 0.53125L15.4453 1.28125Z" fill="#005175"/>
</svg>